<?xml version="1.0" encoding="UTF-8"?>
<svg id="Lag_2" data-name="Lag 2" xmlns="http://www.w3.org/2000/svg" viewBox="0 0 390 844">
  <defs>
    <style>
      .cls-1 {
        fill: none;
        stroke: #000;
        stroke-miterlimit: 10;
      }
    </style>
  </defs>
  <line class="cls-1" x1="390" y1="421.72" x2="353.4" y2="421.72"/>
  <line class="cls-1" x1="36.78" y1="421.72" x2=".18" y2="421.72"/>
  <line class="cls-1" x1="353.4" y1="463.18" x2="389.46" y2="472.04"/>
  <line class="cls-1" x1="0" y1="376.41" x2="36.78" y2="385.44"/>
  <line class="cls-1" x1="353.4" y1="504.44" x2="389.46" y2="522.64"/>
  <line class="cls-1" x1=".36" y1="326.37" x2="36.78" y2="344.74"/>
  <line class="cls-1" x1="353.4" y1="549.79" x2="389.46" y2="578.23"/>
  <line class="cls-1" x1=".36" y1="271.33" x2="36.78" y2="300.05"/>
  <line class="cls-1" x1="353.4" y1="602.99" x2="389.46" y2="643.29"/>
  <line class="cls-1" x1=".36" y1="208.5" x2="36.78" y2="249.2"/>
  <line class="cls-1" x1="353.4" y1="669.07" x2="389.46" y2="724.46"/>
  <line class="cls-1" x1=".36" y1="126.77" x2="36.78" y2="182.72"/>
  <line class="cls-1" x1="353.4" y1="760.91" x2="389.46" y2="837.33"/>
  <line class="cls-1" x1=".36" y1="12.79" x2="36.78" y2="89.97"/>
  <line class="cls-1" x1="318.2" y1="797.85" x2="333.2" y2="843.44"/>
  <line class="cls-1" x1="55.53" y1="0" x2="73.29" y2="53.93"/>
  <line class="cls-1" x1="273.85" y1="797.85" x2="283.44" y2="843.44"/>
  <line class="cls-1" x1="106.02" y1="0" x2="117.36" y2="53.93"/>
  <line class="cls-1" x1="233.59" y1="797.85" x2="238.36" y2="844"/>
  <line class="cls-1" x1="151.1" y1="0" x2="156.67" y2="53.93"/>
  <line class="cls-1" x1="195.07" y1="797.85" x2="195.09" y2="844"/>
  <line class="cls-1" x1="194.73" y1="0" x2="194.75" y2="53.93"/>
  <line class="cls-1" x1="157.22" y1="797.85" x2="152.54" y2="843.44"/>
  <line class="cls-1" x1="239.08" y1="0" x2="233.55" y2="53.93"/>
  <line class="cls-1" x1="116.33" y1="797.85" x2="106.74" y2="843.44"/>
  <line class="cls-1" x1="284.16" y1="0" x2="272.82" y2="53.93"/>
  <line class="cls-1" x1="72.71" y1="797.85" x2="57.7" y2="843.44"/>
  <line class="cls-1" x1="335.37" y1="0" x2="317.61" y2="53.93"/>
  <line class="cls-1" x1="36.78" y1="761.16" x2=".36" y2="838.44"/>
  <line class="cls-1" x1="389.46" y1="12.79" x2="353.4" y2="89.31"/>
  <line class="cls-1" x1="36.78" y1="668.51" x2=".36" y2="724.46"/>
  <line class="cls-1" x1="389.46" y1="126.77" x2="353.4" y2="182.16"/>
  <line class="cls-1" x1="36.78" y1="601.58" x2=".36" y2="642.17"/>
  <line class="cls-1" x1="389.46" y1="208.5" x2="353.4" y2="248.69"/>
  <line class="cls-1" x1="36.78" y1="549.82" x2=".36" y2="578.23"/>
  <line class="cls-1" x1="389.46" y1="274.66" x2="353.4" y2="302.79"/>
  <line class="cls-1" x1="36.78" y1="503.36" x2=".36" y2="521.52"/>
  <line class="cls-1" x1="389.46" y1="327.48" x2="353.4" y2="345.46"/>
  <line class="cls-1" x1="36.78" y1="463.11" x2="0" y2="472.04"/>
  <line class="cls-1" x1="389.46" y1="377.52" x2="353.4" y2="386.27"/>
  <rect class="cls-1" x="-177.23" y="267.03" width="743.92" height="316.62" transform="translate(-230.61 620.07) rotate(-90)"/>
</svg>