<?xml version="1.0" encoding="UTF-8"?>
<svg id="Lag_2" data-name="Lag 2" xmlns="http://www.w3.org/2000/svg" viewBox="0 0 1920 1080">
  <defs>
    <style>
      .cls-1 {
        fill: none;
        stroke: #000;
        stroke-miterlimit: 10;
      }
    </style>
  </defs>
  <line class="cls-1" x1="960.38" y1="1080" x2="960.38" y2="978.5"/>
  <line class="cls-1" x1="960.38" y1="100.5" x2="960.38" y2="-1"/>
  <line class="cls-1" x1="866.04" y1="978.5" x2="845.89" y2="1078.5"/>
  <line class="cls-1" x1="1063.49" y1="-1.5" x2="1042.95" y2="100.5"/>
  <line class="cls-1" x1="772.15" y1="978.5" x2="730.76" y2="1078.5"/>
  <line class="cls-1" x1="1177.36" y1="-.5" x2="1135.56" y2="100.5"/>
  <line class="cls-1" x1="668.97" y1="978.5" x2="604.24" y2="1078.5"/>
  <line class="cls-1" x1="1302.61" y1="-.5" x2="1237.24" y2="100.5"/>
  <line class="cls-1" x1="547.91" y1="978.5" x2="456.22" y2="1078.5"/>
  <line class="cls-1" x1="1445.57" y1="-.5" x2="1352.96" y2="100.5"/>
  <line class="cls-1" x1="397.55" y1="978.5" x2="271.51" y2="1078.5"/>
  <line class="cls-1" x1="1631.55" y1="-.5" x2="1504.23" y2="100.5"/>
  <line class="cls-1" x1="188.56" y1="978.5" x2="14.68" y2="1078.5"/>
  <line class="cls-1" x1="1890.9" y1="-.5" x2="1715.27" y2="100.5"/>
  <line class="cls-1" x1="104.51" y1="880.88" x2=".77" y2="922.5"/>
  <line class="cls-1" x1="1920" y1="152.5" x2="1797.28" y2="201.74"/>
  <line class="cls-1" x1="104.51" y1="757.91" x2=".77" y2="784.5"/>
  <line class="cls-1" x1="1920" y1="292.5" x2="1797.28" y2="323.96"/>
  <line class="cls-1" x1="104.51" y1="646.27" x2="-.5" y2="659.5"/>
  <line class="cls-1" x1="1920" y1="417.5" x2="1797.28" y2="432.96"/>
  <line class="cls-1" x1="104.51" y1="539.45" x2="-.5" y2="539.5"/>
  <line class="cls-1" x1="1920" y1="538.5" x2="1797.28" y2="538.56"/>
  <line class="cls-1" x1="104.51" y1="434.47" x2=".77" y2="421.5"/>
  <line class="cls-1" x1="1920" y1="661.5" x2="1797.28" y2="646.15"/>
  <line class="cls-1" x1="104.51" y1="321.09" x2=".77" y2="294.5"/>
  <line class="cls-1" x1="1920" y1="786.5" x2="1797.28" y2="755.04"/>
  <line class="cls-1" x1="104.51" y1="200.12" x2=".77" y2="158.5"/>
  <line class="cls-1" x1="1920" y1="928.5" x2="1797.28" y2="879.26"/>
  <line class="cls-1" x1="188.01" y1="100.5" x2="12.15" y2="-.5"/>
  <line class="cls-1" x1="1890.9" y1="1078.5" x2="1716.78" y2="978.5"/>
  <line class="cls-1" x1="398.82" y1="100.5" x2="271.51" y2="-.5"/>
  <line class="cls-1" x1="1631.55" y1="1078.5" x2="1505.5" y2="978.5"/>
  <line class="cls-1" x1="551.12" y1="100.5" x2="458.75" y2="-.5"/>
  <line class="cls-1" x1="1445.57" y1="1078.5" x2="1354.11" y2="978.5"/>
  <line class="cls-1" x1="668.9" y1="100.5" x2="604.24" y2="-.5"/>
  <line class="cls-1" x1="1295.02" y1="1078.5" x2="1231" y2="978.5"/>
  <line class="cls-1" x1="774.62" y1="100.5" x2="733.29" y2="-.5"/>
  <line class="cls-1" x1="1174.83" y1="1078.5" x2="1133.91" y2="978.5"/>
  <line class="cls-1" x1="866.2" y1="100.5" x2="845.89" y2="-1.5"/>
  <line class="cls-1" x1="1060.96" y1="1078.5" x2="1041.05" y2="978.5"/>
  <rect class="cls-1" x="105.77" y="99.5" width="1692.77" height="878"/>
</svg>